<svg xmlns="http://www.w3.org/2000/svg" viewBox="0 0 495.03 150.42">
    <style>
        .main { fill: #01BFCE; }
        .secondary { fill: #888; }
        .shadow { fill: #0198a2; }
    </style>
    <g class="be main">
        <g id="b">
            <path d="M48,56.26A47.74,47.74,0,1,0,95.73,104h0A47.73,47.73,0,0,0,48,56.26Zm0,7.19c22.88,0,41.43,18.09,41.43,40.41S70.91,144.26,48,144.26,6.6,126.17,6.6,103.86,25.15,63.45,48,63.45Z" transform="translate(-0.26 -1.31)"/>
            <circle cx="38.33" cy="38.28" r="38.28"/>
            <path d="M.27,39.6v64.32H6.65S4.3,77.85,39,77.85.27,39.6.27,39.6Z" transform="translate(-0.26 -1.31)"/>
        </g>
        <path class="shadow" d="M69.92,61.61a35.19,35.19,0,0,1-4.72,5.48A42.43,42.43,0,0,1,70.57,70l4.52-5.24A47.45,47.45,0,0,0,69.92,61.61Z" transform="translate(-0.26 -1.31)"/>
        <path d="M133.31,150.4a33.81,33.81,0,0,1-16.92-4.2,31,31,0,0,1-11.52-11.88,35,35,0,0,1-4.2-17.28,36.24,36.24,0,0,1,4-17.28,30.13,30.13,0,0,1,10.92-11.88,31.58,31.58,0,0,1,31.68-.12,28.25,28.25,0,0,1,10.68,11.4,34.92,34.92,0,0,1,3.84,16.68,3.41,3.41,0,0,1-1,2.52,3.69,3.69,0,0,1-2.52.84h-52.8V113h54.72l-5.28,4a29.38,29.38,0,0,0-2.64-13.8A21.92,21.92,0,0,0,144,93.76a23.69,23.69,0,0,0-24.72,0,23.87,23.87,0,0,0-8.4,9.36,30.74,30.74,0,0,0-3,13.92,28.59,28.59,0,0,0,3.24,13.8,24.43,24.43,0,0,0,9,9.48,25.71,25.71,0,0,0,13.2,3.36,29.45,29.45,0,0,0,9.36-1.56,20.66,20.66,0,0,0,7.56-4.32,3.54,3.54,0,0,1,6,2.16,2.81,2.81,0,0,1-1.08,2.4,30.34,30.34,0,0,1-10.08,5.76,33.64,33.64,0,0,1-11.76,2.28Z" transform="translate(-0.26 -1.31)"/>
    </g>
    <g class="hauss secondary">
        <path d="M173.45,121a3.32,3.32,0,0,1-3.6-3.6V59.68a3.57,3.57,0,0,1,1-2.64,3.83,3.83,0,0,1,2.64-1,3.32,3.32,0,0,1,3.6,3.6V117.4a3.83,3.83,0,0,1-1,2.64,3.57,3.57,0,0,1-2.64,1Zm53.16,28.8a3.32,3.32,0,0,1-3.6-3.6V113.92q0-7.92-3.12-13.08a18.73,18.73,0,0,0-8.28-7.68,25.45,25.45,0,0,0-11.76-2.64A26.18,26.18,0,0,0,188.21,93a19.92,19.92,0,0,0-8.16,6.72,16.64,16.64,0,0,0-3,9.72h-6a26.44,26.44,0,0,1,4.44-13.32,27.65,27.65,0,0,1,10.32-9.36,28.77,28.77,0,0,1,14-3.48,32.73,32.73,0,0,1,15.48,3.6,25.63,25.63,0,0,1,10.92,10.32q4,6.72,4,16.68V146.2a3.59,3.59,0,0,1-1.08,2.64,3.41,3.41,0,0,1-2.52,1Zm-53.16,0a3.32,3.32,0,0,1-3.6-3.6V87.76a3.57,3.57,0,0,1,1-2.64,3.83,3.83,0,0,1,2.64-1,3.32,3.32,0,0,1,3.6,3.6V146.2a3.83,3.83,0,0,1-1,2.64,3.57,3.57,0,0,1-2.64,1Z" transform="translate(-0.26 -1.31)"/>
        <path d="M273.11,150.52a34.63,34.63,0,0,1-17.28-4.32,33.19,33.19,0,0,1-12-12A34.39,34.39,0,0,1,239.51,117a34,34,0,0,1,4.32-17.16,32,32,0,0,1,12-12,33.89,33.89,0,0,1,17.28-4.44,33.25,33.25,0,0,1,17.16,4.44,31.13,31.13,0,0,1,11.88,12A33.25,33.25,0,0,1,306.59,117l-3,4.8a26.9,26.9,0,0,1-4.08,14.64,29.11,29.11,0,0,1-10.8,10.32,32.12,32.12,0,0,1-15.6,3.72Zm0-6.72a25.36,25.36,0,0,0,22.8-13.08A27.18,27.18,0,0,0,299.39,117a26.76,26.76,0,0,0-3.48-13.68,24.54,24.54,0,0,0-9.36-9.6,25.22,25.22,0,0,0-13.44-3.6,26.16,26.16,0,0,0-22.92,13.2A26.76,26.76,0,0,0,246.71,117a27.18,27.18,0,0,0,3.48,13.68,26.59,26.59,0,0,0,9.48,9.6,26.3,26.3,0,0,0,13.44,3.48Zm29.88,6a3.32,3.32,0,0,1-3.6-3.6v-22l2.28-7.2h4.92V146.2a3.83,3.83,0,0,1-1,2.64,3.57,3.57,0,0,1-2.64,1Z" transform="translate(-0.26 -1.31)"/>
        <path d="M346.25,150.64a33.65,33.65,0,0,1-15.48-3.48,27.39,27.39,0,0,1-10.92-10.44q-4-6.84-4-16.68V87.76a3.41,3.41,0,0,1,1-2.52,3.59,3.59,0,0,1,2.64-1.08,3.69,3.69,0,0,1,3.6,3.6V120a26.14,26.14,0,0,0,3,13.08,20.41,20.41,0,0,0,8.28,7.8,27.24,27.24,0,0,0,11.88,2.52,26.18,26.18,0,0,0,11.64-2.52,21.24,21.24,0,0,0,8.16-6.72,16.64,16.64,0,0,0,3-9.72h6a27.14,27.14,0,0,1-4.44,13.44,28.57,28.57,0,0,1-24.36,12.72Zm26.4-.84a3.32,3.32,0,0,1-3.6-3.6V87.76a3.57,3.57,0,0,1,1-2.64,3.83,3.83,0,0,1,2.64-1,3.32,3.32,0,0,1,3.6,3.6V146.2a3.83,3.83,0,0,1-1,2.64,3.57,3.57,0,0,1-2.64,1Z" transform="translate(-0.26 -1.31)"/>
        <path d="M412.67,150.52a41.34,41.34,0,0,1-13.08-2.28,25,25,0,0,1-11.4-7.68,3.45,3.45,0,0,1-.84-2.52,3.65,3.65,0,0,1,1.56-2.4,3.24,3.24,0,0,1,2.52-.6,3.5,3.5,0,0,1,2.28,1.32,18.91,18.91,0,0,0,8.4,5.76A36.76,36.76,0,0,0,413,143.68q10.08,0,14.28-3.6a10.79,10.79,0,0,0,4.2-8.4q0-4.68-4.56-7.68t-13.8-4.44q-12-1.68-17.76-6.48t-5.76-11.16a16.55,16.55,0,0,1,3-10.08,17.8,17.8,0,0,1,8.16-6.24,31.46,31.46,0,0,1,12-2.16,29.08,29.08,0,0,1,13.8,3,24.74,24.74,0,0,1,9.12,7.8,2.9,2.9,0,0,1,.6,2.64,3.14,3.14,0,0,1-1.8,2.16,3.92,3.92,0,0,1-2.52.36A3.74,3.74,0,0,1,429.71,98a19,19,0,0,0-7.32-5.76,22.28,22.28,0,0,0-9.84-2q-7.56,0-11.76,3.24t-4.2,7.8a9.39,9.39,0,0,0,1.68,5.52,14.29,14.29,0,0,0,5.76,4,48.79,48.79,0,0,0,10.56,2.52q9,1.2,14.16,4.08a18.16,18.16,0,0,1,7.44,6.72,15.11,15.11,0,0,1,2.28,8,14.65,14.65,0,0,1-3.6,9.84,23.29,23.29,0,0,1-9.48,6.48,36.61,36.61,0,0,1-12.72,2.16Z" transform="translate(-0.26 -1.31)"/>
        <path d="M469.49,150.52a41.34,41.34,0,0,1-13.08-2.28,25,25,0,0,1-11.4-7.68,3.45,3.45,0,0,1-.84-2.52,3.65,3.65,0,0,1,1.56-2.4,3.24,3.24,0,0,1,2.52-.6,3.5,3.5,0,0,1,2.28,1.32,18.91,18.91,0,0,0,8.4,5.76,36.76,36.76,0,0,0,10.92,1.56q10.08,0,14.28-3.6a10.79,10.79,0,0,0,4.2-8.4q0-4.68-4.56-7.68T470,119.56q-12-1.68-17.76-6.48t-5.76-11.16a16.55,16.55,0,0,1,3-10.08,17.8,17.8,0,0,1,8.16-6.24,31.46,31.46,0,0,1,12-2.16,29.08,29.08,0,0,1,13.8,3,24.74,24.74,0,0,1,9.12,7.8,2.9,2.9,0,0,1,.6,2.64,3.14,3.14,0,0,1-1.8,2.16,3.92,3.92,0,0,1-2.52.36A3.74,3.74,0,0,1,486.53,98a19,19,0,0,0-7.32-5.76,22.28,22.28,0,0,0-9.84-2q-7.56,0-11.76,3.24t-4.2,7.8a9.39,9.39,0,0,0,1.68,5.52,14.29,14.29,0,0,0,5.76,4,48.79,48.79,0,0,0,10.56,2.52q9,1.2,14.16,4.08A18.16,18.16,0,0,1,493,124a15.11,15.11,0,0,1,2.28,8,14.65,14.65,0,0,1-3.6,9.84,23.29,23.29,0,0,1-9.48,6.48,36.61,36.61,0,0,1-12.72,2.16Z" transform="translate(-0.26 -1.31)"/>
    </g>
</svg>