<svg viewBox="0 0 437 150.42" version="1.1" width="437" height="150.42" xmlns="http://www.w3.org/2000/svg" xmlns:svg="http://www.w3.org/2000/svg">
  <style
     id="style2">
        .main { fill: #01BFCE; }
        .secondary { fill: #888; }
        .shadow { fill: #0198a2; }
    </style>
  <g
     class="be main"
     id="g15"
     transform="matrix(0.99885632,0,0,1,-1.143677e-5,0)">
    <g
       id="b">
      <path
         d="M 48,56.26 A 47.74,47.74 0 1 0 95.73,104 v 0 A 47.73,47.73 0 0 0 48,56.26 Z m 0,7.19 c 22.88,0 41.43,18.09 41.43,40.41 0,22.32 -18.52,40.4 -41.43,40.4 -22.91,0 -41.4,-18.09 -41.4,-40.4 C 6.6,81.55 25.15,63.45 48,63.45 Z"
         transform="translate(-0.26,-1.31)"
         id="path4" />
      <circle
         cx="38.330002"
         cy="38.279999"
         r="38.279999"
         id="circle6" />
      <path
         d="m 0.27,39.6 v 64.32 H 6.65 C 6.65,103.92 4.3,77.85 39,77.85 73.7,77.85 0.27,39.6 0.27,39.6 Z"
         transform="translate(-0.26,-1.31)"
         id="path8" />
    </g>
    <path
       class="shadow"
       d="M 69.92,61.61 A 35.19,35.19 0 0 1 65.2,67.09 42.43,42.43 0 0 1 70.57,70 l 4.52,-5.24 a 47.45,47.45 0 0 0 -5.17,-3.15 z"
       transform="translate(-0.26,-1.31)"
       id="path11" />
    <path
       d="m 133.31,150.4 a 33.81,33.81 0 0 1 -16.92,-4.2 31,31 0 0 1 -11.52,-11.88 35,35 0 0 1 -4.2,-17.28 36.24,36.24 0 0 1 4,-17.28 30.13,30.13 0 0 1 10.92,-11.88 31.58,31.58 0 0 1 31.68,-0.12 28.25,28.25 0 0 1 10.68,11.4 34.92,34.92 0 0 1 3.84,16.68 3.41,3.41 0 0 1 -1,2.52 3.69,3.69 0 0 1 -2.52,0.84 h -52.8 V 113 h 54.72 l -5.28,4 a 29.38,29.38 0 0 0 -2.64,-13.8 21.92,21.92 0 0 0 -8.27,-9.44 23.69,23.69 0 0 0 -24.72,0 23.87,23.87 0 0 0 -8.4,9.36 30.74,30.74 0 0 0 -3,13.92 28.59,28.59 0 0 0 3.24,13.8 24.43,24.43 0 0 0 9,9.48 25.71,25.71 0 0 0 13.2,3.36 29.45,29.45 0 0 0 9.36,-1.56 20.66,20.66 0 0 0 7.56,-4.32 3.54,3.54 0 0 1 6,2.16 2.81,2.81 0 0 1 -1.08,2.4 30.34,30.34 0 0 1 -10.08,5.76 33.64,33.64 0 0 1 -11.76,2.28 z"
       transform="translate(-0.26,-1.31)"
       id="path13" />
  </g>
  <g
     class="hauss secondary"
     id="g27"
     style="fill:#bdbdbd;fill-opacity:1"
     transform="matrix(0.99885632,0,0,1,-1.143677e-5,-0.28614612)">
    <text
       xml:space="preserve"
       id="text3861"
       style="font-style:normal;font-weight:normal;font-size:40px;line-height:1.25;font-family:sans-serif;white-space:pre;shape-inside:url(#rect3863);fill:#bdbdbd;fill-opacity:1;stroke:none" />
    <text
       xml:space="preserve"
       id="text14713"
       style="font-style:normal;font-weight:normal;font-size:40px;line-height:1.25;font-family:sans-serif;white-space:pre;shape-inside:url(#rect14715);fill:#bdbdbd;fill-opacity:1;stroke:none" />
    <g
       aria-label="meet"
       transform="translate(54.509447,19.651475)"
       id="text32713"
       style="font-size:120px;line-height:1.25;white-space:pre;shape-inside:url(#rect32715);fill:#bdbdbd;fill-opacity:1">
      <path
         d="m 205.49984,128.99974 q -1.56,0 -2.64,-0.96 -0.96,-1.08 -0.96,-2.64 V 90.719737 q 0,-9.24 -4.92,-15.12 -4.8,-5.88 -12.6,-5.88 -8.28,0 -13.56,5.52 -5.16,5.4 -4.92,14.64 h -7.2 q 0.24,-8.28 3.6,-14.4 3.36,-6.12 9.12,-9.48 5.76,-3.48 12.96,-3.48 7.32,0 12.84,3.6 5.52,3.6 8.64,9.96 3.24,6.36 3.24,14.64 v 34.680003 q 0,1.56 -0.96,2.64 -0.96,0.96 -2.64,0.96 z m -86.76,0 q -1.56,0 -2.64,-0.96 -0.96,-1.08 -0.96,-2.64 V 66.959737 q 0,-1.68 0.96,-2.64 1.08,-0.96 2.64,-0.96 1.68,0 2.64,0.96 0.96,0.96 0.96,2.64 v 58.440003 q 0,1.56 -0.96,2.64 -0.96,0.96 -2.64,0.96 z m 43.56,0 q -1.56,0 -2.64,-0.96 -0.96,-1.08 -0.96,-2.64 V 90.719737 q 0,-9.24 -4.92,-15.12 -4.8,-5.88 -12.6,-5.88 -8.28,0 -13.56,5.28 -5.28,5.28 -5.28,13.68 h -6 q 0.36,-7.68 3.6,-13.56 3.36,-5.88 8.88,-9.24 5.52,-3.36 12.36,-3.36 7.32,0 12.84,3.6 5.52,3.6 8.64,9.96 3.24,6.36 3.24,14.64 v 34.680003 q 0,1.56 -0.96,2.64 -0.96,0.96 -2.64,0.96 z"
         style="font-weight:300;font-family:Comfortaa;-inkscape-font-specification:'Comfortaa Light';fill:#bdbdbd;fill-opacity:1"
         id="path46685" />
      <path
         d="m 248.53974,129.59974 q -9.48,0 -16.92,-4.2 -7.32,-4.32 -11.52,-11.88 -4.2,-7.56 -4.2,-17.280003 0,-9.84 3.96,-17.28 3.96,-7.56 10.92,-11.88 6.96,-4.32 15.96,-4.32 8.88,0 15.72,4.2 6.84,4.08 10.68,11.4 3.84,7.2 3.84,16.68 0,1.56 -0.96,2.52 -0.96,0.84 -2.52,0.84 h -52.8 v -6.24 h 54.72 l -5.28,3.96 q 0.24,-7.8 -2.64,-13.8 -2.88,-6 -8.28,-9.36 -5.28,-3.48 -12.48,-3.48 -6.84,0 -12.24,3.48 -5.28,3.36 -8.4,9.36 -3,6 -3,13.92 0,7.800003 3.24,13.800003 3.24,6 9,9.48 5.76,3.36 13.2,3.36 4.68,0 9.36,-1.56 4.8,-1.68 7.56,-4.32 0.96,-0.96 2.28,-0.96 1.44,-0.12 2.4,0.72 1.32,1.08 1.32,2.4 0.12,1.32 -1.08,2.4 -3.84,3.48 -10.08,5.76 -6.12,2.28 -11.76,2.28 z"
         style="font-weight:300;font-family:Comfortaa;-inkscape-font-specification:'Comfortaa Light';fill:#bdbdbd;fill-opacity:1"
         id="path46687" />
      <path
         d="m 317.21959,129.59974 q -9.48,0 -16.92,-4.2 -7.32,-4.32 -11.52,-11.88 -4.2,-7.56 -4.2,-17.280003 0,-9.84 3.96,-17.28 3.96,-7.56 10.92,-11.88 6.96,-4.32 15.96,-4.32 8.88,0 15.72,4.2 6.84,4.08 10.68,11.4 3.84,7.2 3.84,16.68 0,1.56 -0.96,2.52 -0.96,0.84 -2.52,0.84 h -52.8 v -6.24 h 54.72 l -5.28,3.96 q 0.24,-7.8 -2.64,-13.8 -2.88,-6 -8.28,-9.36 -5.28,-3.48 -12.48,-3.48 -6.84,0 -12.24,3.48 -5.28,3.36 -8.4,9.36 -3,6 -3,13.92 0,7.800003 3.24,13.800003 3.24,6 9,9.48 5.76,3.36 13.2,3.36 4.68,0 9.36,-1.56 4.8,-1.68 7.56,-4.32 0.96,-0.96 2.28,-0.96 1.44,-0.12 2.4,0.72 1.32,1.08 1.32,2.4 0.12,1.32 -1.08,2.4 -3.84,3.48 -10.08,5.76 -6.12,2.28 -11.76,2.28 z"
         style="font-weight:300;font-family:Comfortaa;-inkscape-font-specification:'Comfortaa Light';fill:#bdbdbd;fill-opacity:1"
         id="path46689" />
      <path
         d="m 376.1395,128.99974 q -6.6,-0.12 -11.76,-3 -5.16,-3 -8.04,-8.16 -2.88,-5.28 -2.88,-11.88 V 46.199737 q 0,-1.68 0.96,-2.64 1.08,-1.08 2.64,-1.08 1.68,0 2.64,1.08 1.08,0.96 1.08,2.64 v 59.760003 q 0,6.96 4.32,11.4 4.32,4.32 11.16,4.32 h 2.64 q 1.68,0 2.64,1.08 1.08,0.96 1.08,2.64 0,1.56 -1.08,2.64 -0.96,0.96 -2.64,0.96 z m -32.04,-56.760003 q -1.44,0 -2.4,-0.84 -0.84,-0.96 -0.84,-2.4 0,-1.44 0.84,-2.28 0.96,-0.96 2.4,-0.96 h 32.52 q 1.44,0 2.28,0.96 0.96,0.84 0.96,2.28 0,1.44 -0.96,2.4 -0.84,0.84 -2.28,0.84 z"
         style="font-weight:300;font-family:Comfortaa;-inkscape-font-specification:'Comfortaa Light';fill:#bdbdbd;fill-opacity:1"
         id="path46691" />
    </g>
  </g>
</svg>
